<svg width="682" height="120" viewBox="0 0 682 120" fill="none" xmlns="http://www.w3.org/2000/svg">
<rect x="30" y="25" width="70" height="70" rx="20" fill="#3D73FF" fill-opacity="0.5"/>
<g filter="url(#filter0_d_8_21)">
<path d="M65 79C67.21 79 69 77.21 69 75H61C61 77.21 62.79 79 65 79ZM77 67V57C77 50.85 73.73 45.72 68 44.36V43C68 41.34 66.66 40 65 40C63.34 40 62 41.34 62 43V44.36C56.27 45.72 53 50.85 53 57V67L49 71V73H81V71L77 67Z" fill="white"/>
</g>
<rect x="1" y="1" width="680" height="118" rx="19" stroke="white" stroke-width="2"/>
<path d="M184.424 60.8379V61.8486C184.424 63.4697 184.204 64.9248 183.765 66.2139C183.325 67.5029 182.705 68.6016 181.904 69.5098C181.104 70.4082 180.146 71.0967 179.033 71.5752C177.93 72.0537 176.704 72.293 175.356 72.293C174.019 72.293 172.793 72.0537 171.68 71.5752C170.576 71.0967 169.619 70.4082 168.809 69.5098C167.998 68.6016 167.368 67.5029 166.919 66.2139C166.479 64.9248 166.26 63.4697 166.26 61.8486V60.8379C166.26 59.207 166.479 57.752 166.919 56.4727C167.358 55.1836 167.979 54.085 168.779 53.1768C169.59 52.2686 170.547 51.5752 171.65 51.0967C172.764 50.6182 173.989 50.3789 175.327 50.3789C176.675 50.3789 177.9 50.6182 179.004 51.0967C180.117 51.5752 181.074 52.2686 181.875 53.1768C182.686 54.085 183.311 55.1836 183.75 56.4727C184.199 57.752 184.424 59.207 184.424 60.8379ZM179.985 61.8486V60.8086C179.985 59.6758 179.883 58.6797 179.678 57.8203C179.473 56.9609 179.17 56.2383 178.77 55.6523C178.369 55.0664 177.881 54.627 177.305 54.334C176.729 54.0312 176.069 53.8799 175.327 53.8799C174.585 53.8799 173.926 54.0312 173.35 54.334C172.783 54.627 172.3 55.0664 171.899 55.6523C171.509 56.2383 171.211 56.9609 171.006 57.8203C170.801 58.6797 170.698 59.6758 170.698 60.8086V61.8486C170.698 62.9717 170.801 63.9678 171.006 64.8369C171.211 65.6963 171.514 66.4238 171.914 67.0195C172.314 67.6055 172.803 68.0498 173.379 68.3525C173.955 68.6553 174.614 68.8066 175.356 68.8066C176.099 68.8066 176.758 68.6553 177.334 68.3525C177.91 68.0498 178.394 67.6055 178.784 67.0195C179.175 66.4238 179.473 65.6963 179.678 64.8369C179.883 63.9678 179.985 62.9717 179.985 61.8486ZM197.628 50.6719V72H193.248V50.6719H197.628ZM204.19 50.6719V54.1143H186.788V50.6719H204.19ZM212.604 50.6719V72H208.21V50.6719H212.604ZM225.173 50.6719L216.999 63.1963H211.623L211.066 59.2852H214.655L219.841 50.6719H225.173ZM220.646 72L214.67 62.4639L217.717 59.3291L225.861 72H220.646ZM237.396 64.3975H231.961V60.9697H237.396C238.235 60.9697 238.919 60.833 239.446 60.5596C239.974 60.2764 240.359 59.8857 240.604 59.3877C240.848 58.8896 240.97 58.3281 240.97 57.7031C240.97 57.0684 240.848 56.4775 240.604 55.9307C240.359 55.3838 239.974 54.9443 239.446 54.6123C238.919 54.2803 238.235 54.1143 237.396 54.1143H233.484V72H229.09V50.6719H237.396C239.065 50.6719 240.496 50.9746 241.688 51.5801C242.889 52.1758 243.807 53.001 244.441 54.0557C245.076 55.1104 245.394 56.3164 245.394 57.6738C245.394 59.0508 245.076 60.2422 244.441 61.248C243.807 62.2539 242.889 63.0303 241.688 63.5771C240.496 64.124 239.065 64.3975 237.396 64.3975ZM252.826 58.4502H257.807C259.477 58.4502 260.917 58.7285 262.128 59.2852C263.349 59.8418 264.281 60.623 264.926 61.6289C265.58 62.6348 265.907 63.8066 265.907 65.1445C265.907 66.1602 265.722 67.0879 265.351 67.9277C264.979 68.7578 264.442 69.4805 263.739 70.0957C263.036 70.7012 262.187 71.1699 261.19 71.502C260.194 71.834 259.066 72 257.807 72H249.955V50.6719H254.364V68.5723H257.807C258.637 68.5723 259.325 68.416 259.872 68.1035C260.429 67.791 260.844 67.376 261.117 66.8584C261.391 66.3311 261.527 65.75 261.527 65.1152C261.527 64.5098 261.391 63.9629 261.117 63.4746C260.844 62.9766 260.429 62.5859 259.872 62.3027C259.325 62.0195 258.637 61.8779 257.807 61.8779H252.826V58.4502ZM272.177 50.6719V72H267.797V50.6719H272.177ZM286.597 50.6719V72H282.217V50.6719H286.597ZM293.159 50.6719V54.1143H275.757V50.6719H293.159ZM300.24 58.4502H305.221C306.9 58.4502 308.346 58.7285 309.557 59.2852C310.768 59.8418 311.7 60.623 312.354 61.6289C313.009 62.6348 313.336 63.8066 313.336 65.1445C313.336 66.1602 313.15 67.0879 312.779 67.9277C312.408 68.7578 311.866 69.4805 311.153 70.0957C310.45 70.7012 309.601 71.1699 308.604 71.502C307.608 71.834 306.48 72 305.221 72H297.369V50.6719H301.778V68.5723H305.221C306.061 68.5723 306.754 68.416 307.301 68.1035C307.848 67.791 308.258 67.376 308.531 66.8584C308.814 66.3311 308.956 65.75 308.956 65.1152C308.956 64.5098 308.814 63.9629 308.531 63.4746C308.258 62.9766 307.848 62.5859 307.301 62.3027C306.754 62.0195 306.061 61.8779 305.221 61.8779H300.24V58.4502ZM334.969 62.6396H329.49L329.461 59.6221H334.061C334.871 59.6221 335.535 59.5195 336.053 59.3145C336.57 59.0996 336.956 58.792 337.21 58.3916C337.474 57.9814 337.605 57.4834 337.605 56.8975C337.605 56.2334 337.479 55.6963 337.225 55.2861C336.98 54.876 336.595 54.5781 336.067 54.3926C335.55 54.207 334.881 54.1143 334.061 54.1143H331.014V72H326.619V50.6719H334.061C335.301 50.6719 336.409 50.7891 337.386 51.0234C338.372 51.2578 339.207 51.6143 339.891 52.0928C340.574 52.5713 341.097 53.1768 341.458 53.9092C341.819 54.6318 342 55.4912 342 56.4873C342 57.3662 341.8 58.1768 341.399 58.9189C341.009 59.6611 340.389 60.2666 339.539 60.7354C338.699 61.2041 337.601 61.4629 336.243 61.5117L334.969 62.6396ZM334.778 72H328.289L330.003 68.5723H334.778C335.55 68.5723 336.18 68.4502 336.668 68.2061C337.156 67.9521 337.518 67.6104 337.752 67.1807C337.986 66.751 338.104 66.2578 338.104 65.7012C338.104 65.0762 337.996 64.5342 337.781 64.0752C337.576 63.6162 337.244 63.2646 336.785 63.0205C336.326 62.7666 335.721 62.6396 334.969 62.6396H330.735L330.765 59.6221H336.038L337.049 60.8086C338.348 60.7891 339.393 61.0186 340.184 61.4971C340.984 61.9658 341.565 62.5762 341.927 63.3281C342.298 64.0801 342.483 64.8857 342.483 65.7451C342.483 67.1123 342.186 68.2646 341.59 69.2021C340.994 70.1299 340.12 70.8281 338.968 71.2969C337.825 71.7656 336.429 72 334.778 72ZM364.799 60.8379V61.8486C364.799 63.4697 364.579 64.9248 364.14 66.2139C363.7 67.5029 363.08 68.6016 362.279 69.5098C361.479 70.4082 360.521 71.0967 359.408 71.5752C358.305 72.0537 357.079 72.293 355.731 72.293C354.394 72.293 353.168 72.0537 352.055 71.5752C350.951 71.0967 349.994 70.4082 349.184 69.5098C348.373 68.6016 347.743 67.5029 347.294 66.2139C346.854 64.9248 346.635 63.4697 346.635 61.8486V60.8379C346.635 59.207 346.854 57.752 347.294 56.4727C347.733 55.1836 348.354 54.085 349.154 53.1768C349.965 52.2686 350.922 51.5752 352.025 51.0967C353.139 50.6182 354.364 50.3789 355.702 50.3789C357.05 50.3789 358.275 50.6182 359.379 51.0967C360.492 51.5752 361.449 52.2686 362.25 53.1768C363.061 54.085 363.686 55.1836 364.125 56.4727C364.574 57.752 364.799 59.207 364.799 60.8379ZM360.36 61.8486V60.8086C360.36 59.6758 360.258 58.6797 360.053 57.8203C359.848 56.9609 359.545 56.2383 359.145 55.6523C358.744 55.0664 358.256 54.627 357.68 54.334C357.104 54.0312 356.444 53.8799 355.702 53.8799C354.96 53.8799 354.301 54.0312 353.725 54.334C353.158 54.627 352.675 55.0664 352.274 55.6523C351.884 56.2383 351.586 56.9609 351.381 57.8203C351.176 58.6797 351.073 59.6758 351.073 60.8086V61.8486C351.073 62.9717 351.176 63.9678 351.381 64.8369C351.586 65.6963 351.889 66.4238 352.289 67.0195C352.689 67.6055 353.178 68.0498 353.754 68.3525C354.33 68.6553 354.989 68.8066 355.731 68.8066C356.474 68.8066 357.133 68.6553 357.709 68.3525C358.285 68.0498 358.769 67.6055 359.159 67.0195C359.55 66.4238 359.848 65.6963 360.053 64.8369C360.258 63.9678 360.36 62.9717 360.36 61.8486ZM377.769 64.3975H372.334V60.9697H377.769C378.608 60.9697 379.292 60.833 379.819 60.5596C380.347 60.2764 380.732 59.8857 380.977 59.3877C381.221 58.8896 381.343 58.3281 381.343 57.7031C381.343 57.0684 381.221 56.4775 380.977 55.9307C380.732 55.3838 380.347 54.9443 379.819 54.6123C379.292 54.2803 378.608 54.1143 377.769 54.1143H373.857V72H369.463V50.6719H377.769C379.438 50.6719 380.869 50.9746 382.061 51.5801C383.262 52.1758 384.18 53.001 384.814 54.0557C385.449 55.1104 385.767 56.3164 385.767 57.6738C385.767 59.0508 385.449 60.2422 384.814 61.248C384.18 62.2539 383.262 63.0303 382.061 63.5771C380.869 64.124 379.438 64.3975 377.769 64.3975ZM407.818 60.8379V61.8486C407.818 63.4697 407.599 64.9248 407.159 66.2139C406.72 67.5029 406.1 68.6016 405.299 69.5098C404.498 70.4082 403.541 71.0967 402.428 71.5752C401.324 72.0537 400.099 72.293 398.751 72.293C397.413 72.293 396.188 72.0537 395.074 71.5752C393.971 71.0967 393.014 70.4082 392.203 69.5098C391.393 68.6016 390.763 67.5029 390.313 66.2139C389.874 64.9248 389.654 63.4697 389.654 61.8486V60.8379C389.654 59.207 389.874 57.752 390.313 56.4727C390.753 55.1836 391.373 54.085 392.174 53.1768C392.984 52.2686 393.941 51.5752 395.045 51.0967C396.158 50.6182 397.384 50.3789 398.722 50.3789C400.069 50.3789 401.295 50.6182 402.398 51.0967C403.512 51.5752 404.469 52.2686 405.27 53.1768C406.08 54.085 406.705 55.1836 407.145 56.4727C407.594 57.752 407.818 59.207 407.818 60.8379ZM403.38 61.8486V60.8086C403.38 59.6758 403.277 58.6797 403.072 57.8203C402.867 56.9609 402.564 56.2383 402.164 55.6523C401.764 55.0664 401.275 54.627 400.699 54.334C400.123 54.0312 399.464 53.8799 398.722 53.8799C397.979 53.8799 397.32 54.0312 396.744 54.334C396.178 54.627 395.694 55.0664 395.294 55.6523C394.903 56.2383 394.605 56.9609 394.4 57.8203C394.195 58.6797 394.093 59.6758 394.093 60.8086V61.8486C394.093 62.9717 394.195 63.9678 394.4 64.8369C394.605 65.6963 394.908 66.4238 395.309 67.0195C395.709 67.6055 396.197 68.0498 396.773 68.3525C397.35 68.6553 398.009 68.8066 398.751 68.8066C399.493 68.8066 400.152 68.6553 400.729 68.3525C401.305 68.0498 401.788 67.6055 402.179 67.0195C402.569 66.4238 402.867 65.6963 403.072 64.8369C403.277 63.9678 403.38 62.9717 403.38 61.8486ZM421.022 50.6719V72H416.643V50.6719H421.022ZM427.585 50.6719V54.1143H410.183V50.6719H427.585ZM438.68 54.3193L432.879 72H428.206L436.131 50.6719H439.104L438.68 54.3193ZM443.499 72L437.684 54.3193L437.215 50.6719H440.218L448.187 72H443.499ZM443.235 64.0605V67.5029H431.971V64.0605H443.235Z" fill="white"/>
<defs>
<filter id="filter0_d_8_21" x="45" y="40" width="40" height="47" filterUnits="userSpaceOnUse" color-interpolation-filters="sRGB">
<feFlood flood-opacity="0" result="BackgroundImageFix"/>
<feColorMatrix in="SourceAlpha" type="matrix" values="0 0 0 0 0 0 0 0 0 0 0 0 0 0 0 0 0 0 127 0" result="hardAlpha"/>
<feOffset dy="4"/>
<feGaussianBlur stdDeviation="2"/>
<feComposite in2="hardAlpha" operator="out"/>
<feColorMatrix type="matrix" values="0 0 0 0 0 0 0 0 0 0 0 0 0 0 0 0 0 0 0.25 0"/>
<feBlend mode="normal" in2="BackgroundImageFix" result="effect1_dropShadow_8_21"/>
<feBlend mode="normal" in="SourceGraphic" in2="effect1_dropShadow_8_21" result="shape"/>
</filter>
</defs>
</svg>
