<svg width="682" height="120" viewBox="0 0 682 120" fill="none" xmlns="http://www.w3.org/2000/svg">
<rect x="30" y="25" width="70" height="70" rx="20" fill="#3D73FF" fill-opacity="0.5"/>
<g filter="url(#filter0_d_8_21)">
<path d="M65 79C67.21 79 69 77.21 69 75H61C61 77.21 62.79 79 65 79ZM77 67V57C77 50.85 73.73 45.72 68 44.36V43C68 41.34 66.66 40 65 40C63.34 40 62 41.34 62 43V44.36C56.27 45.72 53 50.85 53 57V67L49 71V73H81V71L77 67Z" fill="white"/>
</g>
<rect x="1" y="1" width="680" height="118" rx="19" stroke="white" stroke-width="2"/>
<path d="M180.908 50.6719V54.1143H171.299V72H166.919V50.6719H180.908ZM197.745 50.6719V54.1143H187.14V50.6719H197.745ZM200.88 50.6719V72H196.485V50.6719H200.88ZM186.583 50.6719H190.963L190.421 61.3799C190.343 62.9814 190.191 64.373 189.967 65.5547C189.752 66.7363 189.459 67.7422 189.088 68.5723C188.717 69.3926 188.258 70.0566 187.711 70.5645C187.174 71.0625 186.539 71.4287 185.807 71.6631C185.074 71.8877 184.239 72 183.302 72H182.218V68.5723L182.774 68.5283C183.253 68.4795 183.673 68.3525 184.034 68.1475C184.396 67.9424 184.703 67.6348 184.957 67.2246C185.221 66.8145 185.436 66.292 185.602 65.6572C185.777 65.0127 185.914 64.2266 186.012 63.2988C186.119 62.3711 186.192 61.2871 186.231 60.0469L186.583 50.6719ZM217.541 64.251H211.74L210.261 63.6357C208.591 63.1084 207.312 62.3174 206.423 61.2627C205.544 60.208 205.104 58.8652 205.104 57.2344C205.104 55.7988 205.422 54.5977 206.057 53.6309C206.701 52.6543 207.609 51.917 208.781 51.4189C209.963 50.9209 211.364 50.6719 212.985 50.6719H220.427V72H216.018V54.1143H212.985C211.784 54.1143 210.9 54.4121 210.334 55.0078C209.768 55.6035 209.484 56.4482 209.484 57.542C209.484 58.3428 209.616 59.002 209.88 59.5195C210.144 60.0273 210.529 60.4082 211.037 60.6621C211.545 60.9062 212.185 61.0283 212.956 61.0283H217.526L217.541 64.251ZM213.308 62.4785L208.576 72H203.815L208.562 62.4785H213.308ZM242.435 68.5723V72H227.068V68.5723H242.435ZM228.372 68.5723V77.2295H224.241L224.007 68.5723H228.372ZM245.599 68.5723L245.218 77.2441H241.189V68.5723H245.599ZM240.018 50.6719V54.1143H229.749V50.6719H240.018ZM243.152 50.6719V72H238.772V50.6719H243.152ZM229.207 50.6719H233.602L233.03 59.3584C232.942 60.7939 232.786 62.0635 232.562 63.167C232.347 64.2607 232.083 65.2227 231.771 66.0527C231.468 66.8828 231.131 67.6104 230.76 68.2354C230.389 68.8506 229.998 69.3877 229.588 69.8467C229.178 70.2959 228.763 70.6963 228.343 71.0479C227.923 71.3896 227.513 71.707 227.112 72H224.593V68.5723H225.574C225.857 68.3379 226.155 68.0156 226.468 67.6055C226.79 67.1953 227.093 66.6436 227.376 65.9502C227.669 65.2471 227.923 64.3584 228.138 63.2842C228.362 62.21 228.528 60.9014 228.636 59.3584L229.207 50.6719ZM253.603 65.0859L262.172 50.6719H266.566V72H262.172V57.5859L253.603 72H249.208V50.6719H253.603V65.0859ZM285.255 50.6719V72H280.86V50.6719H285.255ZM297.823 50.6719L289.649 63.1963H284.273L283.717 59.2852H287.306L292.491 50.6719H297.823ZM293.297 72L287.32 62.4639L290.367 59.3291L298.512 72H293.297ZM310.412 54.3193L304.611 72H299.938L307.863 50.6719H310.837L310.412 54.3193ZM315.231 72L309.416 54.3193L308.947 50.6719H311.95L319.919 72H315.231ZM314.968 64.0605V67.5029H303.703V64.0605H314.968ZM340.717 62.6396H335.238L335.209 59.6221H339.809C340.619 59.6221 341.283 59.5195 341.801 59.3145C342.318 59.0996 342.704 58.792 342.958 58.3916C343.222 57.9814 343.354 57.4834 343.354 56.8975C343.354 56.2334 343.227 55.6963 342.973 55.2861C342.729 54.876 342.343 54.5781 341.815 54.3926C341.298 54.207 340.629 54.1143 339.809 54.1143H336.762V72H332.367V50.6719H339.809C341.049 50.6719 342.157 50.7891 343.134 51.0234C344.12 51.2578 344.955 51.6143 345.639 52.0928C346.322 52.5713 346.845 53.1768 347.206 53.9092C347.567 54.6318 347.748 55.4912 347.748 56.4873C347.748 57.3662 347.548 58.1768 347.147 58.9189C346.757 59.6611 346.137 60.2666 345.287 60.7354C344.447 61.2041 343.349 61.4629 341.991 61.5117L340.717 62.6396ZM340.526 72H334.037L335.751 68.5723H340.526C341.298 68.5723 341.928 68.4502 342.416 68.2061C342.904 67.9521 343.266 67.6104 343.5 67.1807C343.734 66.751 343.852 66.2578 343.852 65.7012C343.852 65.0762 343.744 64.5342 343.529 64.0752C343.324 63.6162 342.992 63.2646 342.533 63.0205C342.074 62.7666 341.469 62.6396 340.717 62.6396H336.483L336.513 59.6221H341.786L342.797 60.8086C344.096 60.7891 345.141 61.0186 345.932 61.4971C346.732 61.9658 347.313 62.5762 347.675 63.3281C348.046 64.0801 348.231 64.8857 348.231 65.7451C348.231 67.1123 347.934 68.2646 347.338 69.2021C346.742 70.1299 345.868 70.8281 344.716 71.2969C343.573 71.7656 342.177 72 340.526 72ZM370.547 60.8379V61.8486C370.547 63.4697 370.327 64.9248 369.888 66.2139C369.448 67.5029 368.828 68.6016 368.027 69.5098C367.227 70.4082 366.27 71.0967 365.156 71.5752C364.053 72.0537 362.827 72.293 361.479 72.293C360.142 72.293 358.916 72.0537 357.803 71.5752C356.699 71.0967 355.742 70.4082 354.932 69.5098C354.121 68.6016 353.491 67.5029 353.042 66.2139C352.603 64.9248 352.383 63.4697 352.383 61.8486V60.8379C352.383 59.207 352.603 57.752 353.042 56.4727C353.481 55.1836 354.102 54.085 354.902 53.1768C355.713 52.2686 356.67 51.5752 357.773 51.0967C358.887 50.6182 360.112 50.3789 361.45 50.3789C362.798 50.3789 364.023 50.6182 365.127 51.0967C366.24 51.5752 367.197 52.2686 367.998 53.1768C368.809 54.085 369.434 55.1836 369.873 56.4727C370.322 57.752 370.547 59.207 370.547 60.8379ZM366.108 61.8486V60.8086C366.108 59.6758 366.006 58.6797 365.801 57.8203C365.596 56.9609 365.293 56.2383 364.893 55.6523C364.492 55.0664 364.004 54.627 363.428 54.334C362.852 54.0312 362.192 53.8799 361.45 53.8799C360.708 53.8799 360.049 54.0312 359.473 54.334C358.906 54.627 358.423 55.0664 358.022 55.6523C357.632 56.2383 357.334 56.9609 357.129 57.8203C356.924 58.6797 356.821 59.6758 356.821 60.8086V61.8486C356.821 62.9717 356.924 63.9678 357.129 64.8369C357.334 65.6963 357.637 66.4238 358.037 67.0195C358.438 67.6055 358.926 68.0498 359.502 68.3525C360.078 68.6553 360.737 68.8066 361.479 68.8066C362.222 68.8066 362.881 68.6553 363.457 68.3525C364.033 68.0498 364.517 67.6055 364.907 67.0195C365.298 66.4238 365.596 65.6963 365.801 64.8369C366.006 63.9678 366.108 62.9717 366.108 61.8486ZM383.517 64.3975H378.082V60.9697H383.517C384.356 60.9697 385.04 60.833 385.567 60.5596C386.095 60.2764 386.48 59.8857 386.725 59.3877C386.969 58.8896 387.091 58.3281 387.091 57.7031C387.091 57.0684 386.969 56.4775 386.725 55.9307C386.48 55.3838 386.095 54.9443 385.567 54.6123C385.04 54.2803 384.356 54.1143 383.517 54.1143H379.605V72H375.211V50.6719H383.517C385.187 50.6719 386.617 50.9746 387.809 51.5801C389.01 52.1758 389.928 53.001 390.562 54.0557C391.197 55.1104 391.515 56.3164 391.515 57.6738C391.515 59.0508 391.197 60.2422 390.562 61.248C389.928 62.2539 389.01 63.0303 387.809 63.5771C386.617 64.124 385.187 64.3975 383.517 64.3975ZM413.566 60.8379V61.8486C413.566 63.4697 413.347 64.9248 412.907 66.2139C412.468 67.5029 411.848 68.6016 411.047 69.5098C410.246 70.4082 409.289 71.0967 408.176 71.5752C407.072 72.0537 405.847 72.293 404.499 72.293C403.161 72.293 401.936 72.0537 400.822 71.5752C399.719 71.0967 398.762 70.4082 397.951 69.5098C397.141 68.6016 396.511 67.5029 396.062 66.2139C395.622 64.9248 395.402 63.4697 395.402 61.8486V60.8379C395.402 59.207 395.622 57.752 396.062 56.4727C396.501 55.1836 397.121 54.085 397.922 53.1768C398.732 52.2686 399.689 51.5752 400.793 51.0967C401.906 50.6182 403.132 50.3789 404.47 50.3789C405.817 50.3789 407.043 50.6182 408.146 51.0967C409.26 51.5752 410.217 52.2686 411.018 53.1768C411.828 54.085 412.453 55.1836 412.893 56.4727C413.342 57.752 413.566 59.207 413.566 60.8379ZM409.128 61.8486V60.8086C409.128 59.6758 409.025 58.6797 408.82 57.8203C408.615 56.9609 408.312 56.2383 407.912 55.6523C407.512 55.0664 407.023 54.627 406.447 54.334C405.871 54.0312 405.212 53.8799 404.47 53.8799C403.728 53.8799 403.068 54.0312 402.492 54.334C401.926 54.627 401.442 55.0664 401.042 55.6523C400.651 56.2383 400.354 56.9609 400.148 57.8203C399.943 58.6797 399.841 59.6758 399.841 60.8086V61.8486C399.841 62.9717 399.943 63.9678 400.148 64.8369C400.354 65.6963 400.656 66.4238 401.057 67.0195C401.457 67.6055 401.945 68.0498 402.521 68.3525C403.098 68.6553 403.757 68.8066 404.499 68.8066C405.241 68.8066 405.9 68.6553 406.477 68.3525C407.053 68.0498 407.536 67.6055 407.927 67.0195C408.317 66.4238 408.615 65.6963 408.82 64.8369C409.025 63.9678 409.128 62.9717 409.128 61.8486ZM426.771 50.6719V72H422.391V50.6719H426.771ZM433.333 50.6719V54.1143H415.931V50.6719H433.333ZM444.428 54.3193L438.627 72H433.954L441.879 50.6719H444.853L444.428 54.3193ZM449.247 72L443.432 54.3193L442.963 50.6719H445.966L453.935 72H449.247ZM448.983 64.0605V67.5029H437.719V64.0605H448.983ZM483.756 50.6719V72H479.361V54.1143H470.792V72H466.397V50.6719H483.756ZM506.613 60.8379V61.8486C506.613 63.4697 506.394 64.9248 505.954 66.2139C505.515 67.5029 504.895 68.6016 504.094 69.5098C503.293 70.4082 502.336 71.0967 501.223 71.5752C500.119 72.0537 498.894 72.293 497.546 72.293C496.208 72.293 494.982 72.0537 493.869 71.5752C492.766 71.0967 491.809 70.4082 490.998 69.5098C490.188 68.6016 489.558 67.5029 489.108 66.2139C488.669 64.9248 488.449 63.4697 488.449 61.8486V60.8379C488.449 59.207 488.669 57.752 489.108 56.4727C489.548 55.1836 490.168 54.085 490.969 53.1768C491.779 52.2686 492.736 51.5752 493.84 51.0967C494.953 50.6182 496.179 50.3789 497.517 50.3789C498.864 50.3789 500.09 50.6182 501.193 51.0967C502.307 51.5752 503.264 52.2686 504.064 53.1768C504.875 54.085 505.5 55.1836 505.939 56.4727C506.389 57.752 506.613 59.207 506.613 60.8379ZM502.175 61.8486V60.8086C502.175 59.6758 502.072 58.6797 501.867 57.8203C501.662 56.9609 501.359 56.2383 500.959 55.6523C500.559 55.0664 500.07 54.627 499.494 54.334C498.918 54.0312 498.259 53.8799 497.517 53.8799C496.774 53.8799 496.115 54.0312 495.539 54.334C494.973 54.627 494.489 55.0664 494.089 55.6523C493.698 56.2383 493.4 56.9609 493.195 57.8203C492.99 58.6797 492.888 59.6758 492.888 60.8086V61.8486C492.888 62.9717 492.99 63.9678 493.195 64.8369C493.4 65.6963 493.703 66.4238 494.104 67.0195C494.504 67.6055 494.992 68.0498 495.568 68.3525C496.145 68.6553 496.804 68.8066 497.546 68.8066C498.288 68.8066 498.947 68.6553 499.523 68.3525C500.1 68.0498 500.583 67.6055 500.974 67.0195C501.364 66.4238 501.662 65.6963 501.867 64.8369C502.072 63.9678 502.175 62.9717 502.175 61.8486ZM525.589 68.5723V72H514.236V68.5723H525.589ZM515.672 50.6719V72H511.277V50.6719H515.672ZM524.109 59.3584V62.6982H514.236V59.3584H524.109ZM525.574 50.6719V54.1143H514.236V50.6719H525.574ZM533.271 50.6719L537.284 58.1133L541.298 50.6719H546.322L540.126 61.248L546.483 72H541.415L537.284 64.4121L533.153 72H528.056L534.428 61.248L528.217 50.6719H533.271ZM558.867 54.3193L553.066 72H548.394L556.318 50.6719H559.292L558.867 54.3193ZM563.687 72L557.871 54.3193L557.402 50.6719H560.405L568.374 72H563.687ZM563.423 64.0605V67.5029H552.158V64.0605H563.423ZM586.339 50.6719V54.1143H575.733V50.6719H586.339ZM589.474 50.6719V72H585.079V50.6719H589.474ZM575.177 50.6719H579.557L579.015 61.3799C578.937 62.9814 578.785 64.373 578.561 65.5547C578.346 66.7363 578.053 67.7422 577.682 68.5723C577.311 69.3926 576.852 70.0566 576.305 70.5645C575.768 71.0625 575.133 71.4287 574.4 71.6631C573.668 71.8877 572.833 72 571.896 72H570.812V68.5723L571.368 68.5283C571.847 68.4795 572.267 68.3525 572.628 68.1475C572.989 67.9424 573.297 67.6348 573.551 67.2246C573.814 66.8145 574.029 66.292 574.195 65.6572C574.371 65.0127 574.508 64.2266 574.605 63.2988C574.713 62.3711 574.786 61.2871 574.825 60.0469L575.177 50.6719ZM599.03 65.0859L607.6 50.6719H611.994V72H607.6V57.5859L599.03 72H594.636V50.6719H599.03V65.0859Z" fill="white"/>
<defs>
<filter id="filter0_d_8_21" x="45" y="40" width="40" height="47" filterUnits="userSpaceOnUse" color-interpolation-filters="sRGB">
<feFlood flood-opacity="0" result="BackgroundImageFix"/>
<feColorMatrix in="SourceAlpha" type="matrix" values="0 0 0 0 0 0 0 0 0 0 0 0 0 0 0 0 0 0 127 0" result="hardAlpha"/>
<feOffset dy="4"/>
<feGaussianBlur stdDeviation="2"/>
<feComposite in2="hardAlpha" operator="out"/>
<feColorMatrix type="matrix" values="0 0 0 0 0 0 0 0 0 0 0 0 0 0 0 0 0 0 0.25 0"/>
<feBlend mode="normal" in2="BackgroundImageFix" result="effect1_dropShadow_8_21"/>
<feBlend mode="normal" in="SourceGraphic" in2="effect1_dropShadow_8_21" result="shape"/>
</filter>
</defs>
</svg>
